<svg width="44" height="44" viewBox="0 0 44 44" fill="none" xmlns="http://www.w3.org/2000/svg">
<circle cx="22" cy="22" r="22" fill="black"/>
<path d="M34 23.4C34.4971 23.4 34.9 22.9971 34.9 22.5C34.9 22.0029 34.4971 21.6 34 21.6V23.4ZM9.3636 21.8636C9.01213 22.2151 9.01213 22.7849 9.3636 23.1364L15.0912 28.864C15.4426 29.2154 16.0125 29.2154 16.364 28.864C16.7154 28.5125 16.7154 27.9426 16.364 27.5912L11.2728 22.5L16.364 17.4088C16.7154 17.0574 16.7154 16.4875 16.364 16.136C16.0125 15.7846 15.4426 15.7846 15.0912 16.136L9.3636 21.8636ZM34 21.6H10V23.4H34V21.6Z" fill="white"/>
</svg>
