<svg width="20" height="20" viewBox="0 0 20 20" fill="none" xmlns="http://www.w3.org/2000/svg">
<path d="M6.66927 20.0002C7.55333 20.0002 8.40117 19.649 9.02629 19.0239C9.65142 18.3987 10.0026 17.5509 10.0026 16.6668V13.3335H6.66927C5.78522 13.3335 4.93737 13.6847 4.31225 14.3098C3.68713 14.9349 3.33594 15.7828 3.33594 16.6668C3.33594 17.5509 3.68713 18.3987 4.31225 19.0239C4.93737 19.649 5.78522 20.0002 6.66927 20.0002V20.0002Z" fill="#0ACF83"/>
<path d="M3.33594 9.99984C3.33594 9.11578 3.68713 8.26794 4.31225 7.64281C4.93737 7.01769 5.78522 6.6665 6.66927 6.6665H10.0026V13.3332H6.66927C5.78522 13.3332 4.93737 12.982 4.31225 12.3569C3.68713 11.7317 3.33594 10.8839 3.33594 9.99984V9.99984Z" fill="#A259FF"/>
<path d="M3.33594 3.33333C3.33594 2.44973 3.68677 1.60228 4.31133 0.977231C4.93589 0.352184 5.78306 0.000690316 6.66667 0L10 0V6.66667H6.66927C5.78522 6.66667 4.93737 6.31548 4.31225 5.69036C3.68713 5.06523 3.33594 4.21739 3.33594 3.33333V3.33333Z" fill="#F24E1E"/>
<path d="M10.002 0H13.3353C14.2193 0 15.0672 0.351189 15.6923 0.976311C16.3174 1.60143 16.6686 2.44928 16.6686 3.33333C16.6686 4.21739 16.3174 5.06523 15.6923 5.69036C15.0672 6.31548 14.2193 6.66667 13.3353 6.66667H10.002V0Z" fill="#FF7262"/>
<path d="M16.6686 9.99984C16.6686 10.8839 16.3174 11.7317 15.6923 12.3569C15.0672 12.982 14.2193 13.3332 13.3353 13.3332C12.4512 13.3332 11.6034 12.982 10.9783 12.3569C10.3531 11.7317 10.002 10.8839 10.002 9.99984C10.002 9.11578 10.3531 8.26794 10.9783 7.64281C11.6034 7.01769 12.4512 6.6665 13.3353 6.6665C14.2193 6.6665 15.0672 7.01769 15.6923 7.64281C16.3174 8.26794 16.6686 9.11578 16.6686 9.99984V9.99984Z" fill="#1ABCFE"/>
</svg>
